<mxfile host="app.diagrams.net" modified="2022-03-21T08:36:10.933Z" agent="5.0 (X11; Linux x86_64) AppleWebKit/537.36 (KHTML, like Gecko) Chrome/99.0.4844.51 Safari/537.36" etag="vqy-px2vVjmRv1uXCIug" version="17.1.3" type="github">
  <diagram id="4IBVgBsMIoLt2_PhDxbf" name="Page-1">
    <mxGraphModel dx="810" dy="461" grid="1" gridSize="10" guides="1" tooltips="1" connect="1" arrows="1" fold="1" page="1" pageScale="1" pageWidth="850" pageHeight="1100" math="0" shadow="0">
      <root>
        <mxCell id="0" />
        <mxCell id="1" parent="0" />
        <mxCell id="HemBOKYTgfM3ut3WTYRS-2" value="3" style="ellipse;whiteSpace=wrap;html=1;aspect=fixed;" vertex="1" parent="1">
          <mxGeometry x="110" y="50" width="40" height="40" as="geometry" />
        </mxCell>
        <mxCell id="HemBOKYTgfM3ut3WTYRS-3" value="4" style="ellipse;whiteSpace=wrap;html=1;aspect=fixed;" vertex="1" parent="1">
          <mxGeometry x="160" y="50" width="40" height="40" as="geometry" />
        </mxCell>
        <mxCell id="HemBOKYTgfM3ut3WTYRS-4" value="5" style="ellipse;whiteSpace=wrap;html=1;aspect=fixed;" vertex="1" parent="1">
          <mxGeometry x="210" y="50" width="40" height="40" as="geometry" />
        </mxCell>
        <mxCell id="HemBOKYTgfM3ut3WTYRS-5" value="6" style="ellipse;whiteSpace=wrap;html=1;aspect=fixed;" vertex="1" parent="1">
          <mxGeometry x="260" y="50" width="40" height="40" as="geometry" />
        </mxCell>
        <mxCell id="HemBOKYTgfM3ut3WTYRS-6" value="7" style="ellipse;whiteSpace=wrap;html=1;aspect=fixed;" vertex="1" parent="1">
          <mxGeometry x="310" y="50" width="40" height="40" as="geometry" />
        </mxCell>
      </root>
    </mxGraphModel>
  </diagram>
</mxfile>
